<svg xmlns="http://www.w3.org/2000/svg">

  <!-- tube-icon -->
  <symbol id="tube-icon" viewBox="0 0 23 17">
    <g>
      <rect y="7" width="23" height="3"/>
      <path d="M11.5,0C6.806,0,3,3.806,3,8.5c0,4.694,3.806,8.5,8.5,8.5c4.695,0,8.5-3.806,8.5-8.5
      C20,3.806,16.195,0,11.5,0z M11.5,14C8.463,14,6,11.536,6,8.5C6,5.462,8.463,3,11.5,3S17,5.462,17,8.5C17,11.536,14.537,14,11.5,14z
      "/>
    </g>
  </symbol>

  <!-- alert-icon -->
  <symbol id="alert-icon" viewBox="0 0 30 30">
    <g>
      <path d="M15,0C6.714,0,0,6.714,0,15c0,8.283,6.714,15,15,15c8.284,0,15-6.717,15-15C30,6.714,23.284,0,15,0z M15,27
        C8.373,27,3,21.625,3,15C3,8.373,8.373,3,15,3c6.625,0,12,5.373,12,12C27,21.625,21.625,27,15,27z"/>
      <path d="M17.001,17c0,1.104-0.896,2-2,2l0,0c-1.105,0-2-0.896-2-2V7c0-1.104,0.896-2,2-2l0,0c1.104,0,2,0.896,2,2V17
        z"/>
      <circle cx="15.001" cy="23" r="2"/>
    </g>
  </symbol>

  <!-- double-decker-bus-icon -->
  <symbol id="double-decker-bus-icon" viewBox="0 0 19 30">
    <g>
      <path d="M9.5,0C7.634,0,0,0,0,3c0,1.018,0,4.794,0,9h19c0-2.414,0-8.44,0-9C19,0,11.365,0,9.5,0z M1,7V3
        c0-0.552,0.448-1,1-1h6c0.552,0,1,0.448,1,1v4c0,0.553-0.448,1-1,1H2C1.448,8,1,7.553,1,7z M18,7c0,0.553-0.447,1-1,1h-6
        c-0.553,0-1-0.447-1-1V3c0-0.552,0.447-1,1-1h6c0.553,0,1,0.448,1,1V7z M14,11H5V9h9V11z"/>
      <rect x="4.5" y="21.5" width="0.5" height="6"/>
      <path d="M11,14h6h1c0.553,0,1-0.448,1-1v-0.5H0C0,18.736,0,25,0,25c0,0.738,0.405,1.376,1,1.723V29
        c0,0.553,0.448,1,1,1h2c0.552,0,1-0.447,1-1v-2h1c0,0.553,0.448,1,1,1h5c0.553,0,1-0.447,1-1h1v2c0,0.553,0.447,1,1,1h2
        c0.553,0,1-0.447,1-1v-2.277c0.596-0.347,1-0.984,1-1.723v-2c0-1.305-0.837-2.403-2-2.816V19c0-0.553-0.447-1-1-1h-5
        c-0.553,0-1-0.447-1-1v-2C10,14.448,10.447,14,11,14z M16,21.5c0.828,0,1.5,0.672,1.5,1.5s-0.672,1.5-1.5,1.5s-1.5-0.672-1.5-1.5
        S15.172,21.5,16,21.5z M3,24.5c-0.829,0-1.5-0.672-1.5-1.5s0.671-1.5,1.5-1.5s1.5,0.672,1.5,1.5S3.829,24.5,3,24.5z M9,26H7H6v-1v-2
        c0-0.553,0.448-1,1-1h2V26z M9,19c0,0.553-0.448,1-1,1H2c-0.552,0-1-0.447-1-1v-4c0-0.552,0.448-1,1-1h6c0.552,0,1,0.448,1,1V19z
         M12,22c0.553,0,1,0.447,1,1v2v1h-1h-2v-4H12z"/>
    </g>
  </symbol>

  <!-- new-double-decker-bus-icon -->
  <symbol id="new-double-decker-bus-icon" viewBox="0 0 17 30">
    <g>
      <path d="M8.5,0C0.18,0,0,3,0,7s0,20.5,0,20.5h1V29c0,0.553,0.448,1,1,1s1-0.447,1-1v-1.5h11V29c0,0.553,0.447,1,1,1
        s1-0.447,1-1v-1.5h1c0,0,0-16.5,0-20.5S16.82,0,8.5,0z M2,25c-0.552,0-1-0.447-1-1s0.448-1,1-1s1,0.447,1,1S2.552,25,2,25z M15,25
        c-0.553,0-1-0.447-1-1s0.447-1,1-1s1,0.447,1,1S15.553,25,15,25z M16,22H6l-5-2.5v-4h15V22z M15,13H2c-0.552,0-1-0.448-1-1
        s0.448-1,1-1h13c0.553,0,1,0.448,1,1S15.553,13,15,13z M1,7.5c0,0,0-2,0.5-3S3,2,8.5,2s6.5,1.5,7,2.5s0.5,3,0.5,3H1z"/>
      </g>
    </symbol>
    
</svg>